<?xml version="1.0" encoding="utf-8"?>
<!-- Svg Vector Icons : http://www.onlinewebfonts.com/icon -->
<!DOCTYPE svg PUBLIC "-//W3C//DTD SVG 1.1//EN" "http://www.w3.org/Graphics/SVG/1.1/DTD/svg11.dtd">
<svg version="1.1" xmlns="http://www.w3.org/2000/svg" xmlns:xlink="http://www.w3.org/1999/xlink" x="0px" y="0px" viewBox="0 0 1000 1000" enable-background="new 0 0 1000 1000" xml:space="preserve">
<metadata> Svg Vector Icons : http://www.onlinewebfonts.com/icon </metadata>
<g><path fill="#000000" d="M801.6,311.5C801.6,145,666.5,10,500,10c-166.5,0-301.6,135-301.6,301.5c0,55,15,106.4,40.6,150.8h-0.2L499.9,990l261.2-527.7h-0.3C786.6,417.9,801.6,366.5,801.6,311.5z M500,401c-69.9,0-126.7-56.7-126.7-126.6c0-70,56.7-126.7,126.7-126.7c70,0,126.7,56.7,126.7,126.7C626.7,344.3,570,401,500,401z"/></g>
</svg>